# xmcd
#
# Track frame offsets:
#	182
#	12507
#	27812
#
# Disc length: 533 seconds
#
# Revision: 0
# Processed by: cddbd v1.5.2PL0 Copyright (c) Steve Scherf et al.
# Submitted via: audiograbber 1.83.01
#
DISCID=19021303
DTITLE=Die Wildecker Herzbuben - Bitte, bitte, bitte....!
DYEAR=1976
DGENRE=Volksmusik
TTITLE0=Bitte, bitte, bitte ....!
TTITLE1=Die Sonne scheint auf alle gleich
TTITLE2=Bitte, bitte, bitte....! (Karaoke Version)
EXTD=
EXTT0=
EXTT1=
EXTT2=
PLAYORDER=
